<svg width="78" height="78" viewBox="0 0 78 78" fill="none" xmlns="http://www.w3.org/2000/svg">
<path d="M68.0777 26.9912C68.045 24.5298 67.5842 22.0928 66.716 19.7892C65.9631 17.8462 64.8132 16.0816 63.3398 14.6082C61.8663 13.1347 60.1017 11.9848 58.1587 11.232C55.8848 10.3784 53.4826 9.91684 51.0542 9.86698C47.9277 9.72723 46.9365 9.68823 39 9.68823C31.0635 9.68823 30.0462 9.68823 26.9425 9.86698C24.5153 9.91721 22.1141 10.3788 19.8412 11.232C17.8979 11.9843 16.1331 13.134 14.6595 14.6075C13.186 16.0811 12.0363 17.8459 11.284 19.7892C10.4287 22.0614 9.96813 24.4631 9.92223 26.8905C9.78248 30.0202 9.74023 31.0115 9.74023 38.948C9.74023 46.8845 9.74023 47.8985 9.92223 51.0055C9.97098 53.4365 10.4292 55.835 11.284 58.1132C12.0376 60.056 13.1881 61.8201 14.6622 63.293C16.1362 64.7659 17.9012 65.9151 19.8445 66.6672C22.1111 67.5551 24.5127 68.0497 26.9457 68.1297C30.0755 68.2695 31.0667 68.3117 39.0032 68.3117C46.9397 68.3117 47.957 68.3117 51.0607 68.1297C53.489 68.0819 55.8914 67.6214 58.1652 66.768C60.1077 66.0142 61.8719 64.8641 63.3452 63.3907C64.8186 61.9174 65.9688 60.1532 66.7225 58.2107C67.5772 55.9357 68.0355 53.5372 68.0842 51.103C68.224 47.9765 68.2662 46.9852 68.2662 39.0455C68.2597 31.109 68.2597 30.1015 68.0777 26.9912ZM38.9805 53.9565C30.68 53.9565 23.9557 47.2322 23.9557 38.9317C23.9557 30.6312 30.68 23.907 38.9805 23.907C42.9653 23.907 46.7869 25.4899 49.6046 28.3076C52.4223 31.1253 54.0052 34.9469 54.0052 38.9317C54.0052 42.9165 52.4223 46.7381 49.6046 49.5558C46.7869 52.3735 42.9653 53.9565 38.9805 53.9565ZM54.6032 26.8547C54.143 26.8552 53.6873 26.7648 53.262 26.5889C52.8367 26.413 52.4504 26.155 52.1249 25.8295C51.7995 25.5041 51.5415 25.1177 51.3656 24.6925C51.1896 24.2672 51.0993 23.8114 51.0997 23.3512C51.0997 22.8914 51.1903 22.436 51.3663 22.0111C51.5423 21.5863 51.8002 21.2002 52.1254 20.875C52.4506 20.5499 52.8366 20.2919 53.2615 20.1159C53.6864 19.9399 54.1417 19.8494 54.6016 19.8494C55.0615 19.8494 55.5169 19.9399 55.9417 20.1159C56.3666 20.2919 56.7526 20.5499 57.0778 20.875C57.403 21.2002 57.6609 21.5863 57.8369 22.0111C58.0129 22.436 58.1035 22.8914 58.1035 23.3512C58.1035 25.2882 56.537 26.8547 54.6032 26.8547Z" fill="black"/>
<path d="M38.9805 48.6915C44.3706 48.6915 48.7402 44.3219 48.7402 38.9317C48.7402 33.5416 44.3706 29.172 38.9805 29.172C33.5903 29.172 29.2207 33.5416 29.2207 38.9317C29.2207 44.3219 33.5903 48.6915 38.9805 48.6915Z" fill="black"/>
</svg>
