<svg width="70" height="70" viewBox="0 0 70 70" fill="none" xmlns="http://www.w3.org/2000/svg">
<path d="M65.5084 17.5C63.2625 18.5208 60.8417 19.1916 58.3334 19.5125C60.9 17.9666 62.8834 15.5166 63.8167 12.5708C61.3959 14.0291 58.7125 15.05 55.8834 15.6333C53.5792 13.125 50.3417 11.6666 46.6667 11.6666C39.8125 11.6666 34.2125 17.2666 34.2125 24.1791C34.2125 25.1708 34.3292 26.1333 34.5334 27.0375C24.15 26.5125 14.9042 21.525 8.75003 13.9708C7.67087 15.8083 7.05837 17.9666 7.05837 20.2416C7.05837 24.5875 9.24587 28.4375 12.6292 30.625C10.5584 30.625 8.63337 30.0416 6.9417 29.1666V29.2541C6.9417 35.3208 11.2584 40.3958 16.975 41.5333C15.1397 42.0356 13.2128 42.1055 11.3459 41.7375C12.1381 44.2239 13.6895 46.3995 15.7822 47.9585C17.8748 49.5175 20.4034 50.3816 23.0125 50.4291C18.5898 53.9304 13.1075 55.823 7.4667 55.7958C6.47503 55.7958 5.48337 55.7375 4.4917 55.6208C10.0334 59.1791 16.625 61.25 23.6834 61.25C46.6667 61.25 59.2959 42.175 59.2959 25.6375C59.2959 25.0833 59.2959 24.5583 59.2667 24.0041C61.7167 22.2541 63.8167 20.0375 65.5084 17.5Z" fill="black"/>
</svg>
